<mxfile host="65bd71144e">
    <diagram id="F6DeAQJjuSfkXkfnpTXy" name="Page-1">
        <mxGraphModel dx="855" dy="455" grid="1" gridSize="10" guides="1" tooltips="1" connect="1" arrows="1" fold="1" page="1" pageScale="1" pageWidth="850" pageHeight="1100" math="0" shadow="0">
            <root>
                <mxCell id="0"/>
                <mxCell id="1" parent="0"/>
                <mxCell id="4" value="" style="endArrow=classic;html=1;strokeWidth=8;fillColor=#f0a30a;strokeColor=#BD7000;exitX=-0.058;exitY=0.476;exitDx=0;exitDy=0;exitPerimeter=0;entryX=1.132;entryY=0.476;entryDx=0;entryDy=0;entryPerimeter=0;endSize=5;startSize=5;" parent="1" source="14" target="12" edge="1">
                    <mxGeometry width="50" height="50" relative="1" as="geometry">
                        <mxPoint x="520" y="280" as="sourcePoint"/>
                        <mxPoint x="240" y="280" as="targetPoint"/>
                    </mxGeometry>
                </mxCell>
                <mxCell id="5" value="" style="endArrow=classic;html=1;strokeWidth=8;fillColor=#d5e8d4;strokeColor=#82b366;entryX=0;entryY=0;entryDx=0;entryDy=0;exitX=1;exitY=0;exitDx=0;exitDy=0;endSize=5;startSize=5;" parent="1" source="12" target="14" edge="1">
                    <mxGeometry width="50" height="50" relative="1" as="geometry">
                        <mxPoint x="240" y="200" as="sourcePoint"/>
                        <mxPoint x="520" y="200" as="targetPoint"/>
                    </mxGeometry>
                </mxCell>
                <mxCell id="7" value="" style="endArrow=classic;html=1;strokeWidth=8;fillColor=#d80073;strokeColor=#A50040;entryX=1.053;entryY=0.673;entryDx=0;entryDy=0;entryPerimeter=0;exitX=-0.09;exitY=0.656;exitDx=0;exitDy=0;exitPerimeter=0;endSize=5;startSize=5;" parent="1" target="12" edge="1" source="14">
                    <mxGeometry width="50" height="50" relative="1" as="geometry">
                        <mxPoint x="510" y="300" as="sourcePoint"/>
                        <mxPoint x="240" y="300" as="targetPoint"/>
                    </mxGeometry>
                </mxCell>
                <mxCell id="8" value="" style="endArrow=classic;html=1;strokeWidth=8;fillColor=#6a00ff;strokeColor=#3700CC;entryX=1.035;entryY=0.863;entryDx=0;entryDy=0;entryPerimeter=0;endSize=5;startSize=5;" parent="1" target="12" edge="1">
                    <mxGeometry width="50" height="50" relative="1" as="geometry">
                        <mxPoint x="518" y="329" as="sourcePoint"/>
                        <mxPoint x="240" y="320" as="targetPoint"/>
                    </mxGeometry>
                </mxCell>
                <mxCell id="9" value="" style="endArrow=classic;html=1;strokeWidth=8;fillColor=#e51400;strokeColor=#B20000;startArrow=none;entryX=1.132;entryY=0.278;entryDx=0;entryDy=0;entryPerimeter=0;exitX=-0.09;exitY=0.278;exitDx=0;exitDy=0;exitPerimeter=0;endSize=5;startSize=5;" parent="1" source="14" target="12" edge="1">
                    <mxGeometry width="50" height="50" relative="1" as="geometry">
                        <mxPoint x="340" y="400" as="sourcePoint"/>
                        <mxPoint x="250" y="260" as="targetPoint"/>
                    </mxGeometry>
                </mxCell>
                <mxCell id="10" value="" style="endArrow=none;html=1;fontSize=288;strokeWidth=3;startArrow=none;" parent="1" source="12" edge="1">
                    <mxGeometry width="50" height="50" relative="1" as="geometry">
                        <mxPoint x="370" y="349.44" as="sourcePoint"/>
                        <mxPoint x="370" y="179.44" as="targetPoint"/>
                    </mxGeometry>
                </mxCell>
                <mxCell id="11" value="" style="endArrow=none;html=1;fontSize=288;strokeWidth=3;" parent="1" edge="1">
                    <mxGeometry width="50" height="50" relative="1" as="geometry">
                        <mxPoint x="529.72" y="349.44" as="sourcePoint"/>
                        <mxPoint x="529.72" y="179.44" as="targetPoint"/>
                    </mxGeometry>
                </mxCell>
                <mxCell id="12" value="" style="rounded=0;whiteSpace=wrap;html=1;fontSize=288;" parent="1" vertex="1">
                    <mxGeometry x="360" y="199.44" width="20" height="150" as="geometry"/>
                </mxCell>
                <mxCell id="13" value="" style="endArrow=none;html=1;fontSize=288;strokeWidth=3;" parent="1" target="12" edge="1">
                    <mxGeometry width="50" height="50" relative="1" as="geometry">
                        <mxPoint x="370" y="349.44" as="sourcePoint"/>
                        <mxPoint x="370" y="179.44" as="targetPoint"/>
                    </mxGeometry>
                </mxCell>
                <mxCell id="14" value="" style="rounded=0;whiteSpace=wrap;html=1;fontSize=288;" parent="1" vertex="1">
                    <mxGeometry x="520" y="199.44" width="20" height="150" as="geometry"/>
                </mxCell>
            </root>
        </mxGraphModel>
    </diagram>
</mxfile>